REM DIRINDEX 1\8,1\2\11,1\3\12,1\3\14,1\5\15,1\5\16,1\6\17,1\6\18,1\4\19,1\4\20,1\4\21,1\4\22,1\7\23,1\7\24,1\7\25,1\2\9\26,1\2\9\27,1\2\10\28,1\2\10\29,1\2\10\30,1\2\10\31,1\2\10\32,1\3\13\33,1\3\13\34,1\3\13\35
REM DIRNAME cjc123,folder01,folder02,folder03,folder04,folder05,folder06,folder07,folder08,folder09,folder10,folder11,folder12,folder13,folder14,folder15,folder16,folder17,folder18,folder19,folder20,folder21,folder22,folder23,folder24,folder25,folder26,folder27,folder28,folder29,folder30,folder31,folder32,folder33,folder34
TITLE ""
FILE "1-04 004_UNIT1_SET2.mp3" MP3
  TRACK 01 AUDIO
    TITLE "11:cjc123_0159"
    INDEX 01 00:00:00
  TRACK 02 AUDIO
    TITLE "0:"
    INDEX 01 00:02:49
  TRACK 03 AUDIO
    TITLE "28:cjc123_0160"
    INDEX 01 00:03:27
  TRACK 04 AUDIO
    TITLE "0:"
    INDEX 01 00:04:44
  TRACK 05 AUDIO
    TITLE "29:cjc123_0161"
    INDEX 01 00:04:50
  TRACK 06 AUDIO
    TITLE "0:"
    INDEX 01 00:06:16
  TRACK 07 AUDIO
    TITLE "30:cjc123_0162"
    INDEX 01 00:06:24
  TRACK 08 AUDIO
    TITLE "0:"
    INDEX 01 00:07:31
  TRACK 09 AUDIO
    TITLE "31:cjc123_0163"
    INDEX 01 00:08:03
  TRACK 10 AUDIO
    TITLE "0:"
    INDEX 01 00:10:53
  TRACK 11 AUDIO
    TITLE "32:cjc123_0164"
    INDEX 01 00:11:09
  TRACK 12 AUDIO
    TITLE "0:"
    INDEX 01 00:13:43
  TRACK 13 AUDIO
    TITLE "28:cjc123_0165"
    INDEX 01 00:14:09
  TRACK 14 AUDIO
    TITLE "0:"
    INDEX 01 00:15:11
  TRACK 15 AUDIO
    TITLE "29:cjc123_0166"
    INDEX 01 00:15:19
  TRACK 16 AUDIO
    TITLE "0:"
    INDEX 01 00:16:26
  TRACK 17 AUDIO
    TITLE "30:cjc123_0167"
    INDEX 01 00:16:38
  TRACK 18 AUDIO
    TITLE "0:"
    INDEX 01 00:17:41
  TRACK 19 AUDIO
    TITLE "31:cjc123_0168"
    INDEX 01 00:18:11
  TRACK 20 AUDIO
    TITLE "0:"
    INDEX 01 00:21:04
  TRACK 21 AUDIO
    TITLE "32:cjc123_0169"
    INDEX 01 00:21:43
  TRACK 22 AUDIO
    TITLE "0:"
    INDEX 01 00:24:47
  TRACK 23 AUDIO
    TITLE "28:cjc123_0170"
    INDEX 01 00:25:17
  TRACK 24 AUDIO
    TITLE "0:"
    INDEX 01 00:26:24
  TRACK 25 AUDIO
    TITLE "29:cjc123_0171"
    INDEX 01 00:26:42
  TRACK 26 AUDIO
    TITLE "0:"
    INDEX 01 00:27:67
  TRACK 27 AUDIO
    TITLE "30:cjc123_0172"
    INDEX 01 00:28:00
  TRACK 28 AUDIO
    TITLE "0:"
    INDEX 01 00:29:07
  TRACK 29 AUDIO
    TITLE "31:cjc123_0173"
    INDEX 01 00:29:60
  TRACK 30 AUDIO
    TITLE "0:"
    INDEX 01 00:32:60
  TRACK 31 AUDIO
    TITLE "32:cjc123_0174"
    INDEX 01 00:33:17
  TRACK 32 AUDIO
    TITLE "0:"
    INDEX 01 00:35:53
  TRACK 33 AUDIO
    TITLE "28:cjc123_0175"
    INDEX 01 00:36:21
  TRACK 34 AUDIO
    TITLE "0:"
    INDEX 01 00:37:16
  TRACK 35 AUDIO
    TITLE "29:cjc123_0176"
    INDEX 01 00:37:32
  TRACK 36 AUDIO
    TITLE "0:"
    INDEX 01 00:38:53
  TRACK 37 AUDIO
    TITLE "30:cjc123_0177"
    INDEX 01 00:38:59
  TRACK 38 AUDIO
    TITLE "0:"
    INDEX 01 00:39:54
  TRACK 39 AUDIO
    TITLE "31:cjc123_0178"
    INDEX 01 00:40:30
  TRACK 40 AUDIO
    TITLE "0:"
    INDEX 01 00:43:68
  TRACK 41 AUDIO
    TITLE "32:cjc123_0179"
    INDEX 01 00:44:30
  TRACK 42 AUDIO
    TITLE "0:"
    INDEX 01 00:48:20
  TRACK 43 AUDIO
    TITLE "28:cjc123_0180"
    INDEX 01 00:48:69
  TRACK 44 AUDIO
    TITLE "0:"
    INDEX 01 00:49:69
  TRACK 45 AUDIO
    TITLE "29:cjc123_0181"
    INDEX 01 00:50:01
  TRACK 46 AUDIO
    TITLE "0:"
    INDEX 01 00:51:36
  TRACK 47 AUDIO
    TITLE "30:cjc123_0182"
    INDEX 01 00:51:44
  TRACK 48 AUDIO
    TITLE "0:"
    INDEX 01 00:52:39
  TRACK 49 AUDIO
    TITLE "31:cjc123_0183"
    INDEX 01 00:53:09
  TRACK 50 AUDIO
    TITLE "0:"
    INDEX 01 00:56:02
  TRACK 51 AUDIO
    TITLE "32:cjc123_0184"
    INDEX 01 00:56:41
  TRACK 52 AUDIO
    TITLE "0:"
    INDEX 01 00:59:14
  TRACK 53 AUDIO
    TITLE "28:cjc123_0185"
    INDEX 01 00:59:61
  TRACK 54 AUDIO
    TITLE "0:"
    INDEX 01 01:00:53
  TRACK 55 AUDIO
    TITLE "29:cjc123_0186"
    INDEX 01 01:00:70
  TRACK 56 AUDIO
    TITLE "0:"
    INDEX 01 01:01:62
  TRACK 57 AUDIO
    TITLE "30:cjc123_0187"
    INDEX 01 01:02:12
  TRACK 58 AUDIO
    TITLE "0:"
    INDEX 01 01:03:14
  TRACK 59 AUDIO
    TITLE "31:cjc123_0188"
    INDEX 01 01:03:63
  TRACK 60 AUDIO
    TITLE "0:"
    INDEX 01 01:05:68
  TRACK 61 AUDIO
    TITLE "32:cjc123_0189"
    INDEX 01 01:06:38
  TRACK 62 AUDIO
    TITLE "0:"
    INDEX 01 01:08:54
  TRACK 63 AUDIO
    TITLE "28:cjc123_0190"
    INDEX 01 01:09:34
  TRACK 64 AUDIO
    TITLE "0:"
    INDEX 01 01:10:30
  TRACK 65 AUDIO
    TITLE "29:cjc123_0191"
    INDEX 01 01:10:41
  TRACK 66 AUDIO
    TITLE "0:"
    INDEX 01 01:11:54
  TRACK 67 AUDIO
    TITLE "30:cjc123_0192"
    INDEX 01 01:11:62
  TRACK 68 AUDIO
    TITLE "0:"
    INDEX 01 01:12:56
  TRACK 69 AUDIO
    TITLE "31:cjc123_0193"
    INDEX 01 01:13:36
  TRACK 70 AUDIO
    TITLE "0:"
    INDEX 01 01:16:56
  TRACK 71 AUDIO
    TITLE "32:cjc123_0194"
    INDEX 01 01:17:12
  TRACK 72 AUDIO
    TITLE "0:"
    INDEX 01 01:19:48
  TRACK 73 AUDIO
    TITLE "28:cjc123_0195"
    INDEX 01 01:20:16
  TRACK 74 AUDIO
    TITLE "0:"
    INDEX 01 01:21:27
  TRACK 75 AUDIO
    TITLE "29:cjc123_0196"
    INDEX 01 01:21:39
  TRACK 76 AUDIO
    TITLE "0:"
    INDEX 01 01:22:70
  TRACK 77 AUDIO
    TITLE "30:cjc123_0197"
    INDEX 01 01:23:05
  TRACK 78 AUDIO
    TITLE "0:"
    INDEX 01 01:24:10
  TRACK 79 AUDIO
    TITLE "31:cjc123_0198"
    INDEX 01 01:24:59
  TRACK 80 AUDIO
    TITLE "0:"
    INDEX 01 01:27:16
  TRACK 81 AUDIO
    TITLE "32:cjc123_0199"
    INDEX 01 01:27:44
  TRACK 82 AUDIO
    TITLE "0:"
    INDEX 01 01:30:17
  TRACK 83 AUDIO
    TITLE "28:cjc123_0200"
    INDEX 01 01:30:60
  TRACK 84 AUDIO
    TITLE "0:"
    INDEX 01 01:31:65
  TRACK 85 AUDIO
    TITLE "29:cjc123_0201"
    INDEX 01 01:32:00
  TRACK 86 AUDIO
    TITLE "0:"
    INDEX 01 01:33:31
  TRACK 87 AUDIO
    TITLE "30:cjc123_0202"
    INDEX 01 01:33:40
  TRACK 88 AUDIO
    TITLE "0:"
    INDEX 01 01:34:38
  TRACK 89 AUDIO
    TITLE "31:cjc123_0203"
    INDEX 01 01:35:08
  TRACK 90 AUDIO
    TITLE "0:"
    INDEX 01 01:38:20
  TRACK 91 AUDIO
    TITLE "32:cjc123_0204"
    INDEX 01 01:38:59
  TRACK 92 AUDIO
    TITLE "0:"
    INDEX 01 01:42:02
  TRACK 93 AUDIO
    TITLE "28:cjc123_0205"
    INDEX 01 01:42:55
  TRACK 94 AUDIO
    TITLE "0:"
    INDEX 01 01:43:51
  TRACK 95 AUDIO
    TITLE "29:cjc123_0206"
    INDEX 01 01:43:66
  TRACK 96 AUDIO
    TITLE "0:"
    INDEX 01 01:45:22
  TRACK 97 AUDIO
    TITLE "30:cjc123_0207"
    INDEX 01 01:45:40
  TRACK 98 AUDIO
    TITLE "0:"
    INDEX 01 01:46:39
  TRACK 99 AUDIO
    TITLE "31:cjc123_0208"
    INDEX 01 01:47:13
  TRACK 100 AUDIO
    TITLE "0:"
    INDEX 01 01:49:43
  TRACK 101 AUDIO
    TITLE "32:cjc123_0209"
    INDEX 01 01:50:04
  TRACK 102 AUDIO
    TITLE "0:"
    INDEX 01 01:52:57
  TRACK 103 AUDIO
    TITLE "28:cjc123_0210"
    INDEX 01 01:53:27
  TRACK 104 AUDIO
    TITLE "0:"
    INDEX 01 01:54:35
  TRACK 105 AUDIO
    TITLE "29:cjc123_0211"
    INDEX 01 01:54:44
  TRACK 106 AUDIO
    TITLE "0:"
    INDEX 01 01:56:04
  TRACK 107 AUDIO
    TITLE "30:cjc123_0212"
    INDEX 01 01:56:14
  TRACK 108 AUDIO
    TITLE "0:"
    INDEX 01 01:57:17
  TRACK 109 AUDIO
    TITLE "31:cjc123_0213"
    INDEX 01 01:57:70
  TRACK 110 AUDIO
    TITLE "0:"
    INDEX 01 02:00:04
  TRACK 111 AUDIO
    TITLE "32:cjc123_0214"
    INDEX 01 02:00:39
  TRACK 112 AUDIO
    TITLE "0:"
    INDEX 01 02:02:62
  TRACK 113 AUDIO
    TITLE "28:cjc123_0215"
    INDEX 01 02:03:28
  TRACK 114 AUDIO
    TITLE "0:"
    INDEX 01 02:04:15
  TRACK 115 AUDIO
    TITLE "29:cjc123_0216"
    INDEX 01 02:04:31
  TRACK 116 AUDIO
    TITLE "0:"
    INDEX 01 02:05:36
  TRACK 117 AUDIO
    TITLE "30:cjc123_0217"
    INDEX 01 02:05:46
  TRACK 118 AUDIO
    TITLE "0:"
    INDEX 01 02:06:38
  TRACK 119 AUDIO
    TITLE "31:cjc123_0218"
    INDEX 01 02:07:14
  TRACK 120 AUDIO
    TITLE "0:"
    INDEX 01 02:10:02
  TRACK 121 AUDIO
    TITLE "32:cjc123_0219"
    INDEX 01 02:10:32
  TRACK 122 AUDIO
    TITLE "0:"
    INDEX 01 02:12:74
  TRACK 123 AUDIO
    TITLE "28:cjc123_0220"
    INDEX 01 02:13:40
  TRACK 124 AUDIO
    TITLE "0:"
    INDEX 01 02:14:30
  TRACK 125 AUDIO
    TITLE "29:cjc123_0221"
    INDEX 01 02:14:45
  TRACK 126 AUDIO
    TITLE "0:"
    INDEX 01 02:16:17
  TRACK 127 AUDIO
    TITLE "30:cjc123_0222"
    INDEX 01 02:16:21
  TRACK 128 AUDIO
    TITLE "0:"
    INDEX 01 02:17:12
  TRACK 129 AUDIO
    TITLE "31:cjc123_0223"
    INDEX 01 02:17:61
  TRACK 130 AUDIO
    TITLE "0:"
    INDEX 01 02:19:68
  TRACK 131 AUDIO
    TITLE "32:cjc123_0224"
    INDEX 01 02:20:20
  TRACK 132 AUDIO
    TITLE "0:"
    INDEX 01 02:22:66
  TRACK 133 AUDIO
    TITLE "28:cjc123_0225"
    INDEX 01 02:23:40
  TRACK 134 AUDIO
    TITLE "0:"
    INDEX 01 02:24:46
  TRACK 135 AUDIO
    TITLE "29:cjc123_0226"
    INDEX 01 02:24:51
  TRACK 136 AUDIO
    TITLE "0:"
    INDEX 01 02:25:67
  TRACK 137 AUDIO
    TITLE "30:cjc123_0227"
    INDEX 01 02:26:09
  TRACK 138 AUDIO
    TITLE "0:"
    INDEX 01 02:27:05
  TRACK 139 AUDIO
    TITLE "31:cjc123_0228"
    INDEX 01 02:27:65
  TRACK 140 AUDIO
    TITLE "0:"
    INDEX 01 02:29:53
  TRACK 141 AUDIO
    TITLE "32:cjc123_0229"
    INDEX 01 02:30:13
  TRACK 142 AUDIO
    TITLE "0:"
    INDEX 01 02:32:31
  TRACK 143 AUDIO
    TITLE "28:cjc123_0230"
    INDEX 01 02:33:03
  TRACK 144 AUDIO
    TITLE "0:"
    INDEX 01 02:33:68
  TRACK 145 AUDIO
    TITLE "29:cjc123_0231"
    INDEX 01 02:34:11
  TRACK 146 AUDIO
    TITLE "0:"
    INDEX 01 02:35:16
  TRACK 147 AUDIO
    TITLE "30:cjc123_0232"
    INDEX 01 02:35:26
  TRACK 148 AUDIO
    TITLE "0:"
    INDEX 01 02:36:19
  TRACK 149 AUDIO
    TITLE "31:cjc123_0233"
    INDEX 01 02:36:66
  TRACK 150 AUDIO
    TITLE "0:"
    INDEX 01 02:39:20
  TRACK 151 AUDIO
    TITLE "32:cjc123_0234"
    INDEX 01 02:39:53
  TRACK 152 AUDIO
    TITLE "0:"
    INDEX 01 02:42:06
